# xmcd
#
# Track frame offsets: 
#        150
#        18535
#        50325
#        76605
#        101150
#        124205
#        153435
#        178073
#        195495
#        221348
#        241425
#        264425
#
# Disc length: 3912 seconds
#
# Revision: 0
# Processed by: cddbd v1.5.2PL0 Copyright (c) Steve Scherf et al.
# Submitted via: ExactAudioCopy v1.0b3
#
DISCID=9b0f460c
DTITLE=Bang Chau - Qua Con Me
DYEAR=1989
DGENRE=
TTITLE0=Hai au phi xu
TTITLE1=Nhung doi hoa sim
TTITLE2=Mua tren pho Hue
TTITLE3=Pho vang em roi
TTITLE4=Neu dung dang do
TTITLE5=Doi nga chia ly
TTITLE6=Qua con me
TTITLE7=Canh chim bat gio
TTITLE8=Ai ra xu Hue
TTITLE9=Tinh bo vo
TTITLE10=Nhung dom mat hoa chau
TTITLE11=Em hien nhu masoeur
EXTD=
EXTT0=
EXTT1=
EXTT2=
EXTT3=
EXTT4=
EXTT5=
EXTT6=
EXTT7=
EXTT8=
EXTT9=
EXTT10=
EXTT11=
PLAYORDER=
